<svg xmlns="http://www.w3.org/2000/svg" version="1.1" xmlns:xlink="http://www.w3.org/1999/xlink" xmlns:svgjs="http://svgjs.dev/svgjs" width="1500" height="1500" viewBox="0 0 1500 1500"><rect width="1500" height="1500" fill="#ffffff"></rect><g transform="matrix(0.6666666666666666,0,0,0.6666666666666666,249.39393939393938,608.3456292512997)"><svg viewBox="0 0 396 112" data-background-color="#000000" preserveAspectRatio="xMidYMid meet" height="424" width="1500" xmlns="http://www.w3.org/2000/svg" xmlns:xlink="http://www.w3.org/1999/xlink"><g id="tight-bounds" transform="matrix(1,0,0,1,0.2400000000000091,0.1272035042020434)"><svg viewBox="0 0 395.52 111.74559299159593" height="111.74559299159593" width="395.52"><g><svg viewBox="0 0 591.0255458633417 166.98144239401495" height="111.74559299159593" width="395.52"><g transform="matrix(1,0,0,1,0,23.0777536159601)"><svg viewBox="0 0 395.52 120.82593516209475" height="120.82593516209475" width="395.52"><g id="textblocktransform"><svg viewBox="0 0 395.52 120.82593516209475" height="120.82593516209475" width="395.52" id="textblock"><g><svg viewBox="0 0 395.52 120.82593516209475" height="120.82593516209475" width="395.52"><g transform="matrix(1,0,0,1,0,0)"><svg width="395.52" viewBox="3.5 -36.25 120.29 36.75" height="120.82593516209475" data-palette-color="#89939e"><path d="M3.5 0L3.5-33.85Q3.85-33.85 5.1-33.88 6.35-33.9 7.9-33.9 9.45-33.9 11-33.93 12.55-33.95 13.55-33.95L13.55-33.95Q19.75-33.95 22.6-31.53 25.45-29.1 25.45-24.7L25.45-24.7Q25.45-21.8 24-19.55 22.55-17.3 19.25-16.3L19.25-16.3Q20.65-15.5 21.75-14.1 22.85-12.7 23.9-10.68 24.95-8.65 26.05-5.98 27.15-3.3 28.6 0L28.6 0 22.15 0Q20.45-3.95 19.18-6.75 17.9-9.55 16.7-11.3 15.5-13.05 14.13-13.85 12.75-14.65 10.9-14.65L10.9-14.65 9.45-14.65 9.45 0 3.5 0ZM9.45-29.7L9.45-19 13.3-19Q16.1-19 17.63-20.25 19.15-21.5 19.15-23.95L19.15-23.95Q19.15-25.05 18.85-26.1 18.55-27.15 17.82-27.95 17.1-28.75 15.88-29.23 14.65-29.7 12.8-29.7L12.8-29.7 9.45-29.7ZM52.85-30.7L49.8-27.05Q48.6-28.35 47.27-29.03 45.95-29.7 44.2-29.7L44.2-29.7Q42.05-29.7 40.57-28.73 39.1-27.75 38.2-26.03 37.3-24.3 36.9-22 36.5-19.7 36.5-17.05L36.5-17.05Q36.5-14.4 36.87-12.1 37.25-9.8 38.17-8.05 39.1-6.3 40.67-5.3 42.25-4.3 44.65-4.3L44.65-4.3Q45.8-4.3 46.85-4.5 47.9-4.7 48.77-4.93 49.65-5.15 50.22-5.35 50.8-5.55 50.95-5.6L50.95-5.6 52.35-1.4 51.7-1.15Q51.05-0.9 49.87-0.58 48.7-0.25 47.07 0.03 45.45 0.3 43.5 0.3L43.5 0.3Q36.8 0.3 33.42-3.98 30.05-8.25 30.05-16.5L30.05-16.5Q30.05-20.45 30.95-23.73 31.85-27 33.67-29.35 35.5-31.7 38.27-33 41.05-34.3 44.8-34.3L44.8-34.3Q47.8-34.3 49.72-33.2 51.65-32.1 52.85-30.7L52.85-30.7ZM74.95-23.85L74.95-12.05Q74.95-9.05 75.32-7.03 75.7-5 76.15-3.75L76.15-3.75Q76.7-2.25 77.34-1.4L77.34-1.4 72.9 0.4Q72.25-0.25 71.7-1.15L71.7-1.15Q71.25-1.95 70.84-3.08 70.45-4.2 70.34-5.75L70.34-5.75Q69.5-2.75 67.62-1.23 65.75 0.3 62.55 0.3L62.55 0.3Q60.2 0.3 58.47-0.58 56.75-1.45 55.6-3.08 54.45-4.7 53.9-7 53.35-9.3 53.35-12.1L53.35-12.1Q53.35-14.95 54.22-17.38 55.1-19.8 56.67-21.55 58.25-23.3 60.45-24.3 62.65-25.3 65.3-25.3L65.3-25.3Q66.8-25.3 68.42-25.08 70.05-24.85 71.45-24.6 72.84-24.35 73.82-24.13 74.8-23.9 74.95-23.85L74.95-23.85ZM63.5-3.7Q64.75-3.7 65.8-4.55 66.84-5.4 67.62-6.78 68.4-8.15 68.82-9.93 69.25-11.7 69.25-13.55L69.25-13.55 69.25-20.75Q68.75-20.9 67.75-21.1 66.75-21.3 65.95-21.3L65.95-21.3Q64.05-21.3 62.82-20.65 61.6-20 60.85-18.85 60.1-17.7 59.8-16.1 59.5-14.5 59.5-12.6L59.5-12.6Q59.5-10.85 59.6-9.25 59.7-7.65 60.12-6.4 60.55-5.15 61.35-4.42 62.15-3.7 63.5-3.7L63.5-3.7ZM81.64-1.15L81.64-35.25 87.34-36.25 87.34-21Q88.24-23.05 89.87-24.18 91.49-25.3 94.04-25.3L94.04-25.3Q96.39-25.3 98.12-24.43 99.84-23.55 100.99-21.93 102.14-20.3 102.69-18 103.24-15.7 103.24-12.9L103.24-12.9Q103.24-10.05 102.37-7.63 101.49-5.2 99.92-3.45 98.34-1.7 96.14-0.7 93.94 0.3 91.29 0.3L91.29 0.3Q89.79 0.3 88.09 0.08 86.39-0.15 84.94-0.4L84.94-0.4Q83.29-0.7 81.64-1.15L81.64-1.15ZM93.09-21.3Q91.84-21.3 90.79-20.45 89.74-19.6 88.97-18.2 88.19-16.8 87.77-15.05 87.34-13.3 87.34-11.45L87.34-11.45 87.34-4.2Q87.79-4.1 88.79-3.9 89.79-3.7 90.64-3.7L90.64-3.7Q92.49-3.7 93.74-4.35 94.99-5 95.74-6.15 96.49-7.3 96.79-8.9 97.09-10.5 97.09-12.4L97.09-12.4Q97.09-14.15 96.99-15.75 96.89-17.35 96.47-18.6 96.04-19.85 95.24-20.58 94.44-21.3 93.09-21.3L93.09-21.3ZM115.59-25.5L115.59-25.5Q117.04-25.5 118.44-25.2 119.84-24.9 120.94-24.5L120.94-24.5Q122.24-24.05 123.34-23.55L123.34-23.55 121.64-19.65Q120.64-20.1 119.64-20.45L119.64-20.45Q118.79-20.75 117.77-21.03 116.74-21.3 115.74-21.3L115.74-21.3Q114.59-21.3 113.77-20.75 112.94-20.2 112.94-19.1L112.94-19.1Q112.94-16.25 117.09-14.65L117.09-14.65Q118.64-14.05 119.89-13.38 121.14-12.7 122.02-11.8 122.89-10.9 123.34-9.73 123.79-8.55 123.79-6.95L123.79-6.95Q123.79-5.55 123.22-4.2 122.64-2.85 121.52-1.8 120.39-0.75 118.77-0.13 117.14 0.5 115.09 0.5L115.09 0.5Q113.44 0.5 111.84 0.13 110.24-0.25 108.97-0.7 107.69-1.15 106.94-1.55L106.94-1.55 106.19-1.9 108.04-6.1 108.69-5.75Q109.34-5.35 110.34-4.9 111.34-4.45 112.49-4.08 113.64-3.7 114.59-3.7L114.59-3.7Q116.34-3.7 117.19-4.4 118.04-5.1 118.04-6.25L118.04-6.25Q118.04-7.55 117.12-8.63 116.19-9.7 114.34-10.4L114.34-10.4Q110.49-11.85 108.82-13.7 107.14-15.55 107.14-18.5L107.14-18.5Q107.14-19.9 107.79-21.18 108.44-22.45 109.57-23.43 110.69-24.4 112.24-24.95 113.79-25.5 115.59-25.5Z" opacity="1" transform="matrix(1,0,0,1,0,0)" fill="#000000" class="wordmark-text-0" data-fill-palette-color="primary" id="text-0"></path></svg></g></svg></g></svg></g></svg></g><g transform="matrix(1,0,0,1,424.04410346932667,0)"><svg viewBox="0 0 166.98144239401495 166.98144239401495" height="166.98144239401495" width="166.98144239401495"><g data-palette-color="#dedede"><rect width="45.64159425436409" height="166.98144239401495" fill="#000000" stroke="transparent" data-fill-palette-color="accent" x="0" fill-opacity="1"></rect><rect width="45.64159425436409" height="166.98144239401495" fill="#000000" stroke="transparent" data-fill-palette-color="accent" x="55.66048079800498" fill-opacity="0.75"></rect><rect width="45.64159425436409" height="166.98144239401495" fill="#000000" stroke="transparent" data-fill-palette-color="accent" x="111.32096159600997" fill-opacity="0.5"></rect></g></svg></g></svg></g><defs></defs></svg><rect width="395.52" height="111.74559299159593" fill="none" stroke="none" visibility="hidden"></rect></g></svg></g></svg>